<?xml version="1.0" encoding="UTF-8" standalone="no"?>
<!-- Created with Inkscape (http://www.inkscape.org/) -->

<svg
   width="91.448257mm"
   height="27.805716mm"
   viewBox="0 0 91.448257 27.805716"
   version="1.1"
   id="svg5"
   xmlns="http://www.w3.org/2000/svg"
   xmlns:svg="http://www.w3.org/2000/svg">
  <defs
     id="defs2" />
  <g
     id="layer1"
     transform="translate(-5.2383065,-34.467226)">
    <text
       xml:space="preserve"
       style="font-size:25.4px;fill:#0081ff;fill-opacity:1;stroke:#ffffff;stroke-width:0.765;stroke-dasharray:none;stroke-opacity:1"
       x="6.7585692"
       y="57.586243"
       id="text63"><tspan
         id="tspan61"
         style="font-style:normal;font-variant:normal;font-weight:bold;font-stretch:normal;font-size:25.4px;font-family:Mikado;-inkscape-font-specification:'Mikado Bold';fill:#0081ff;fill-opacity:1;stroke:#ffffff;stroke-width:0.765;stroke-dasharray:none;stroke-opacity:1"
         x="6.7585692"
         y="57.586243">LOYTIK</tspan></text>
    <text
       xml:space="preserve"
       style="font-style:normal;font-variant:normal;font-weight:normal;font-stretch:normal;font-size:3.175px;font-family:Mikado;-inkscape-font-specification:Mikado;fill:#000000;stroke-width:0.264583"
       x="25.357042"
       y="67.295113"
       id="text67"><tspan
         id="tspan65"
         style="stroke-width:0.264583"
         x="25.357042"
         y="67.295113" /></text>
    <ellipse
       style="fill:#ffffff;fill-opacity:0.546798;stroke:none;stroke-width:1.19575;stroke-dasharray:none;stroke-opacity:1"
       id="path1472"
       cx="9.9201021"
       cy="44.453892"
       rx="0.63350534"
       ry="3.763555" />
    <ellipse
       style="fill:#ffffff;fill-opacity:0.546798;stroke:none;stroke-width:0.765;stroke-dasharray:none;stroke-opacity:1"
       id="path2306"
       cx="15.166265"
       cy="56.330814"
       rx="3.5826306"
       ry="0.52096087" />
    <ellipse
       style="fill:#ffffff;fill-opacity:0.546798;stroke:none;stroke-width:0.765;stroke-dasharray:none;stroke-opacity:1"
       id="path2308"
       cx="9.8174391"
       cy="49.783813"
       rx="0.6579572"
       ry="0.53344059" />
    <path
       style="fill:#ffffff;fill-opacity:0.546798;stroke:none;stroke-width:0.765;stroke-dasharray:none;stroke-opacity:1"
       d="m 29.014614,40.486732 c -3.603462,1.868533 -5.423194,4.616925 -7.138904,7.416629 0,0 0.28388,-2.911248 2.21217,-4.958103 1.92829,-2.046855 4.926734,-2.458526 4.926734,-2.458526 z"
       id="path2534" />
    <ellipse
       style="fill:#ffffff;fill-opacity:0.546798;stroke:none;stroke-width:0.765;stroke-dasharray:none;stroke-opacity:1"
       id="path2536"
       cx="22.067556"
       cy="49.237419"
       rx="0.57722914"
       ry="0.49669564" />
    <ellipse
       style="fill:#ffffff;fill-opacity:0.546798;stroke:none;stroke-width:0.655498;stroke-dasharray:none;stroke-opacity:1"
       id="path3264"
       cx="15.705918"
       cy="62.702698"
       rx="0.68526214"
       ry="3.4946671"
       transform="matrix(0.74150987,-0.67094196,0.48431864,0.87489168,0,0)" />
    <ellipse
       style="fill:#ffffff;fill-opacity:0.546798;stroke:none;stroke-width:0.765;stroke-dasharray:none;stroke-opacity:1"
       id="path3266"
       cx="45.102955"
       cy="53.015385"
       rx="0.46129531"
       ry="2.9957144" />
    <ellipse
       style="fill:#ffffff;fill-opacity:0.546798;stroke:none;stroke-width:0.765;stroke-dasharray:none;stroke-opacity:1"
       id="path3268"
       cx="46.845573"
       cy="56.65984"
       rx="0.41261414"
       ry="0.30325574" />
    <ellipse
       style="fill:#ffffff;fill-opacity:0.546798;stroke:none;stroke-width:0.984433;stroke-dasharray:none;stroke-opacity:1"
       id="path3270"
       cx="59.746502"
       cy="41.068207"
       rx="3.9461415"
       ry="0.50137955" />
    <ellipse
       style="fill:#ffffff;fill-opacity:0.546798;stroke:none;stroke-width:0.765;stroke-dasharray:none;stroke-opacity:1"
       id="path3272"
       cx="55.956017"
       cy="42.190125"
       rx="0.28647983"
       ry="0.32479277" />
    <ellipse
       style="fill:#ffffff;fill-opacity:0.546798;stroke:none;stroke-width:1.16444;stroke-dasharray:none;stroke-opacity:1"
       id="path3274"
       cx="60.812904"
       cy="50.458153"
       rx="0.62588942"
       ry="5.7085128" />
    <path
       style="fill:#ffffff;fill-opacity:0.546798;stroke:none;stroke-width:0.756172;stroke-dasharray:none;stroke-opacity:1"
       id="path3284"
       d="m 72.141521,47.989246 a 0.43521467,7.1627312 0 0 1 -0.427624,7.161642 0.43521467,7.1627312 0 0 1 -0.44254,-6.911843 0.43521467,7.1627312 0 0 1 0.412188,-7.402727 0.43521467,7.1627312 0 0 1 0.456917,6.653634 z" />
    <path
       style="fill:#ffffff;fill-opacity:0.546798;stroke:none;stroke-width:0.765;stroke-dasharray:none;stroke-opacity:1"
       id="path3286"
       d="m 74.146238,40.931866 a 1.270399,0.3008678 0 0 1 -1.248243,0.300822 1.270399,0.3008678 0 0 1 -1.291782,-0.29033 1.270399,0.3008678 0 0 1 1.203186,-0.310948 1.270399,0.3008678 0 0 1 1.333749,0.279483 z" />
    <path
       style="fill:#ffffff;fill-opacity:0.546798;stroke:none;stroke-width:0.765;stroke-dasharray:none;stroke-opacity:1"
       id="path3288"
       d="m 71.913852,56.28912 a 0.17483091,0.52327633 0 0 1 -0.171782,0.523196 0.17483091,0.52327633 0 0 1 -0.177773,-0.504947 0.17483091,0.52327633 0 0 1 0.165581,-0.540809 0.17483091,0.52327633 0 0 1 0.183549,0.486084 z" />
    <path
       style="fill:#ffffff;fill-opacity:0.546798;stroke:none;stroke-width:0.711346;stroke-dasharray:none;stroke-opacity:1"
       id="path3293"
       d="m 80.552977,47.957832 a 0.4969846,6.7322702 0 0 1 -0.488317,6.731247 0.4969846,6.7322702 0 0 1 -0.50535,-6.49646 0.4969846,6.7322702 0 0 1 0.47069,-6.957844 0.4969846,6.7322702 0 0 1 0.521768,6.253769 z" />
    <path
       style="fill:#ffffff;fill-opacity:0.546798;stroke:none;stroke-width:0.765;stroke-dasharray:none;stroke-opacity:1"
       id="path3295"
       d="m 96.072546,-22.340126 a 0.69479203,5.9456935 0 0 1 -0.682675,5.944789 0.69479203,5.9456935 0 0 1 -0.706486,-5.737434 0.69479203,5.9456935 0 0 1 0.658032,-6.144912 0.69479203,5.9456935 0 0 1 0.729439,5.523099 z"
       transform="rotate(40.697026)" />
    <path
       style="fill:#ffffff;fill-opacity:0.546798;stroke:none;stroke-width:0.576916;stroke-dasharray:none;stroke-opacity:1"
       id="path3297"
       d="m 43.012988,89.916199 a 0.53608221,4.3825598 0 0 1 -0.526733,4.381893 0.53608221,4.3825598 0 0 1 -0.545105,-4.229052 0.53608221,4.3825598 0 0 1 0.507719,-4.529403 0.53608221,4.3825598 0 0 1 0.562815,4.071066 z"
       transform="matrix(0.87023139,-0.49264321,0.57335359,0.81930804,0,0)" />
    <path
       style="fill:#ffffff;fill-opacity:0.546798;stroke:none;stroke-width:0.765;stroke-dasharray:none;stroke-opacity:1"
       id="path3299"
       d="m 80.453901,56.023701 a 0.38557956,0.69073951 0 0 1 -0.378855,0.690634 0.38557956,0.69073951 0 0 1 -0.39207,-0.666545 0.38557956,0.69073951 0 0 1 0.36518,-0.713884 0.38557956,0.69073951 0 0 1 0.404807,0.641645 z" />
    <g
       id="g5094"
       transform="rotate(31.433516,4.8728416,22.444558)">
      <path
         style="fill:#0081ff;fill-opacity:1;stroke:#ffffff;stroke-width:0.505;stroke-dasharray:none;stroke-opacity:1"
         d="m 18.928981,28.171629 -2.778223,8.120266 h 2.310395 v 6.328392 l 3.970009,-6.876259 h -2.984845 z"
         id="path4406" />
      <path
         style="fill:#ffffff;fill-opacity:0.543216;stroke:none;stroke-width:0.320212;stroke-dasharray:none;stroke-opacity:1"
         id="path4408"
         d="m 26.810885,24.445997 a 0.32537502,2.5728788 0 0 1 -0.319701,2.572488 0.32537502,2.5728788 0 0 1 -0.330851,-2.482759 0.32537502,2.5728788 0 0 1 0.30816,-2.659087 0.32537502,2.5728788 0 0 1 0.3416,2.39001 z"
         transform="matrix(0.93042151,0.36649121,-0.27080371,0.96263459,0,0)" />
      <path
         style="fill:#ffffff;fill-opacity:0.543216;stroke:none;stroke-width:0.283217;stroke-dasharray:none;stroke-opacity:1"
         id="path5086"
         d="m 36.212247,23.758892 a 0.29661623,2.2078648 0 0 1 -0.291444,2.207529 0.29661623,2.2078648 0 0 1 -0.301608,-2.13053 0.29661623,2.2078648 0 0 1 0.280923,-2.281842 0.29661623,2.2078648 0 0 1 0.311407,2.050939 z"
         transform="matrix(0.8751563,0.48384032,-0.47884955,0.87789698,0,0)" />
      <path
         style="fill:#ffffff;fill-opacity:0.543216;stroke:none;stroke-width:0.505;stroke-dasharray:none;stroke-opacity:1"
         id="path5088"
         d="m 18.8259,35.620144 a 0.36887848,0.27004382 0 0 1 -0.362445,0.270003 0.36887848,0.27004382 0 0 1 -0.375087,-0.260585 0.36887848,0.27004382 0 0 1 0.349362,-0.279092 0.36887848,0.27004382 0 0 1 0.387273,0.25085 z" />
    </g>
    <g
       id="g5104"
       transform="rotate(31.433516,19.77037,176.60667)">
      <path
         style="fill:#0081ff;fill-opacity:1;stroke:#ffffff;stroke-width:0.505;stroke-dasharray:none;stroke-opacity:1"
         d="m 18.928981,28.171629 -2.778223,8.120266 h 2.310395 v 6.328392 l 3.970009,-6.876259 h -2.984845 z"
         id="path5096" />
      <path
         style="fill:#ffffff;fill-opacity:0.543216;stroke:none;stroke-width:0.320212;stroke-dasharray:none;stroke-opacity:1"
         id="path5098"
         d="m 26.810885,24.445997 a 0.32537502,2.5728788 0 0 1 -0.319701,2.572488 0.32537502,2.5728788 0 0 1 -0.330851,-2.482759 0.32537502,2.5728788 0 0 1 0.30816,-2.659087 0.32537502,2.5728788 0 0 1 0.3416,2.39001 z"
         transform="matrix(0.93042151,0.36649121,-0.27080371,0.96263459,0,0)" />
      <path
         style="fill:#ffffff;fill-opacity:0.543216;stroke:none;stroke-width:0.283217;stroke-dasharray:none;stroke-opacity:1"
         id="path5100"
         d="m 36.212247,23.758892 a 0.29661623,2.2078648 0 0 1 -0.291444,2.207529 0.29661623,2.2078648 0 0 1 -0.301608,-2.13053 0.29661623,2.2078648 0 0 1 0.280923,-2.281842 0.29661623,2.2078648 0 0 1 0.311407,2.050939 z"
         transform="matrix(0.8751563,0.48384032,-0.47884955,0.87789698,0,0)" />
      <path
         style="fill:#ffffff;fill-opacity:0.543216;stroke:none;stroke-width:0.505;stroke-dasharray:none;stroke-opacity:1"
         id="path5102"
         d="m 18.8259,35.620144 a 0.36887848,0.27004382 0 0 1 -0.362445,0.270003 0.36887848,0.27004382 0 0 1 -0.375087,-0.260585 0.36887848,0.27004382 0 0 1 0.349362,-0.279092 0.36887848,0.27004382 0 0 1 0.387273,0.25085 z" />
    </g>
  </g>
</svg>
